<svg xmlns="http://www.w3.org/2000/svg" viewBox="0 0 800 800" width="800" height="800">
  <rect width="800" height="800" fill="#E8DFD3"/>
  <g stroke="#2F4A3A" stroke-width="7" fill="none" stroke-linecap="round" stroke-linejoin="round" transform="translate(150 120) scale(1.28)">
    <path d="M200 480c0-90-15-150-10-220"/>
    <path d="M194 330c-50-10-85-45-90-95 45 5 80 35 90 75"/>
    <path d="M195 320c25-95 85-140 155-145-5 85-65 135-150 155"/>
    <path d="M199 300c20-50 50-85 90-105"/>
    <circle cx="295" cy="190" r="8" fill="#2F4A3A"/>
  </g>
  <g stroke="#C98CA0" stroke-width="5" fill="none" stroke-linecap="round">
    <path d="M600 690c0-30-5-50-3-73"/>
    <path d="M597 630c-32-5-48-25-50-52 28 3 46 22 50 45"/>
    <path d="M598 623c8-32 28-47 52-48-2 28-22 45-50 52"/>
  </g>
</svg>