<svg xmlns="http://www.w3.org/2000/svg" viewBox="0 0 800 800" width="800" height="800">
  <rect width="800" height="800" fill="#EFE7DA"/>
  <circle cx="400" cy="392" r="252" fill="#FFFFFF" fill-opacity="0.5"/>
  <g transform="translate(120 100) scale(5.6)" stroke="#2F4A3A" stroke-width="3" fill="none" stroke-linecap="round" stroke-linejoin="round">
    
    <path d="M36 24l-16 10 6 12 8-4v34h32V42l8 4 6-12-16-10a12 12 0 0 1-28 0z"/>
    <path d="M44 52c3-5 12-5 12 1 0 5-6 7-6 11" fill="none"/>
    <circle cx="50" cy="69" r="1" fill="#2F4A3A" stroke="none"/>
  
  </g>
  
  <g stroke="#C98CA0" stroke-width="2.4" fill="none" stroke-linecap="round">
    <path d="M672 736c0-36-6-60-4-88"/>
    <path d="M668 664c-38-6-58-30-60-62 34 4 56 26 60 54"/>
    <path d="M669 656c10-38 34-56 62-58-2 34-26 54-60 62"/>
  </g>
</svg>